<svg width="41" height="41" viewBox="0 0 41 41" fill="none" xmlns="http://www.w3.org/2000/svg">
<circle cx="20.5" cy="20.5" r="20.5" fill="#197ABE"/>
<path d="M25.9821 24.9444L20.0753 20.5L21.4147 19.4919C21.5601 19.3825 21.6827 19.2454 21.7753 19.0884C21.8679 18.9315 21.9288 18.7578 21.9546 18.5772C21.9803 18.3966 21.9703 18.2128 21.9252 18.0361C21.88 17.8594 21.8007 17.6934 21.6916 17.5475C21.5825 17.4015 21.4458 17.2786 21.2894 17.1857C21.133 17.0928 20.9598 17.0317 20.7798 17.0059C20.5999 16.9801 20.4166 16.9901 20.2405 17.0354C20.0644 17.0806 19.8989 17.1602 19.7534 17.2697L19.1523 17.7222V12.1667L19.7534 12.6192C19.8989 12.7286 20.0644 12.8083 20.2405 12.8535C20.4166 12.8988 20.5999 12.9088 20.7798 12.883C20.9598 12.8572 21.133 12.7961 21.2894 12.7032C21.4458 12.6103 21.5825 12.4873 21.6916 12.3414C21.8007 12.1955 21.88 12.0295 21.9252 11.8528C21.9703 11.6761 21.9803 11.4922 21.9546 11.3117C21.9288 11.1311 21.8679 10.9574 21.7753 10.8005C21.6827 10.6435 21.5601 10.5064 21.4147 10.397L18.5986 8.27778C18.3929 8.12302 18.1483 8.02878 17.8923 8.00561C17.6362 7.98245 17.3788 8.03128 17.1488 8.14663C16.9188 8.26198 16.7255 8.4393 16.5903 8.65871C16.4551 8.87812 16.3835 9.13096 16.3835 9.38889V17.7222L11.2151 13.8333C10.9213 13.6123 10.5521 13.5174 10.1886 13.5695C9.82515 13.6216 9.49719 13.8164 9.27689 14.1111C9.05659 14.4058 8.96199 14.7762 9.01392 15.1409C9.06585 15.5055 9.26003 15.8345 9.55377 16.0556L15.4606 20.5L9.55377 24.9444C9.40833 25.0539 9.28579 25.191 9.19317 25.3479C9.10054 25.5049 9.03963 25.6786 9.01392 25.8591C8.98821 26.0397 8.9982 26.2236 9.04332 26.4002C9.08844 26.5769 9.16781 26.743 9.27689 26.8889C9.38597 27.0348 9.52263 27.1577 9.67907 27.2507C9.8355 27.3436 10.0087 27.4047 10.1886 27.4305C10.3686 27.4563 10.5519 27.4463 10.728 27.401C10.9041 27.3557 11.0696 27.2761 11.2151 27.1667L16.3835 23.2778V31.6111C16.3835 31.869 16.4551 32.1219 16.5903 32.3413C16.7255 32.5607 16.9188 32.738 17.1488 32.8534C17.3788 32.9687 17.6362 33.0176 17.8923 32.9944C18.1483 32.9712 18.3929 32.877 18.5986 32.7222L25.9821 27.1667C26.154 27.0373 26.2936 26.8695 26.3897 26.6767C26.4858 26.4838 26.5359 26.2712 26.5359 26.0556C26.5359 25.8399 26.4858 25.6273 26.3897 25.4344C26.2936 25.2416 26.154 25.0738 25.9821 24.9444ZM19.1523 28.8333V23.2778L22.8441 26.0556L19.1523 28.8333ZM32.5915 16.7396C32.8516 17.0005 32.9977 17.3544 32.9977 17.7234C32.9977 18.0924 32.8516 18.4463 32.5915 18.7072C32.3314 18.9681 31.9787 19.1147 31.6109 19.1147C31.2431 19.1147 30.8903 18.9681 30.6303 18.7072L28.8432 16.912L27.0539 18.7083C26.9251 18.8375 26.7722 18.94 26.604 19.0099C26.4357 19.0798 26.2554 19.1158 26.0732 19.1158C25.8911 19.1158 25.7108 19.0798 25.5425 19.0099C25.3743 18.94 25.2214 18.8375 25.0926 18.7083C24.9638 18.5791 24.8617 18.4258 24.792 18.257C24.7223 18.0882 24.6864 17.9072 24.6864 17.7245C24.6864 17.5418 24.7223 17.3609 24.792 17.1921C24.8617 17.0233 24.9638 16.8699 25.0926 16.7407L26.882 14.9444L25.0961 13.1493C24.836 12.8884 24.6899 12.5345 24.6899 12.1655C24.6899 11.7965 24.836 11.4426 25.0961 11.1817C25.3562 10.9208 25.7089 10.7742 26.0767 10.7742C26.4445 10.7742 26.7972 10.9208 27.0573 11.1817L28.8432 12.9769L30.6326 11.1806C30.8926 10.9196 31.2454 10.7731 31.6132 10.7731C31.981 10.7731 32.3337 10.9196 32.5938 11.1806C32.8539 11.4415 33 11.7954 33 12.1644C33 12.5333 32.8539 12.8872 32.5938 13.1481L30.8045 14.9444L32.5915 16.7396Z" fill="white"/>
</svg>
