<svg width="45" height="54" viewBox="0 0 45 54" fill="none" xmlns="http://www.w3.org/2000/svg">
<path fill-rule="evenodd" clip-rule="evenodd" d="M16.619 15.9031L23.0544 18.8092L20.0445 25.1967L16.619 15.9031ZM27.1661 44.5182L30.1761 38.1307L23.7406 35.2246L27.1661 44.5182ZM16.8442 32.1075L2.84469 25.7328L4.73623 21.7188L15.86 26.739L8.76445 7.48812L28.9937 16.6201L22.7812 29.9232L36.2047 35.9848L26.746 56.0633L19.6244 36.7418L14.3515 47.8056L10.3073 45.9794L16.8442 32.1075ZM30.0075 59.305C42.5607 54.678 49.0412 45.6518 40.7704 23.2124C32.5256 0.843728 21.7373 -1.81752 9.18763 2.8081C-3.36202 7.43372 -9.84607 16.4613 -1.57526 38.9006C6.66822 61.2658 17.4578 63.9306 30.0075 59.305Z" fill="#3C887E" fill-opacity="0.5"/>
</svg>
