<svg width="15" height="17" viewBox="0 0 15 17" fill="none" xmlns="http://www.w3.org/2000/svg">
<path d="M13.4357 0.773429C13.1947 0.528157 12.9085 0.333605 12.5935 0.200895C12.2785 0.0681851 11.9409 -8.08926e-05 11.6 7.19344e-08C11.259 8.10364e-05 10.9214 0.0685073 10.6065 0.201367C10.2916 0.334227 10.0055 0.528915 9.76457 0.774301L1.61571 9.07371C1.13017 9.56869 0.857384 10.2393 0.857143 10.9385V13.7308C0.857143 14.0917 1.14514 14.3846 1.5 14.3846H4.26257C4.95086 14.3846 5.61086 14.1057 6.09686 13.6114L14.2397 5.32416C14.7254 4.82896 14.9982 4.15802 14.9982 3.45853C14.9982 2.75904 14.7254 2.08811 14.2397 1.59291L13.4357 0.773429ZM0.642857 15.6923C0.472361 15.6923 0.308848 15.7612 0.188288 15.8838C0.0677293 16.0064 0 16.1728 0 16.3462C0 16.5196 0.0677293 16.6859 0.188288 16.8085C0.308848 16.9311 0.472361 17 0.642857 17H14.3571C14.5276 17 14.6912 16.9311 14.8117 16.8085C14.9323 16.6859 15 16.5196 15 16.3462C15 16.1728 14.9323 16.0064 14.8117 15.8838C14.6912 15.7612 14.5276 15.6923 14.3571 15.6923H0.642857Z" fill="#344B47"/>
</svg>
