<svg width="31" height="39" viewBox="0 0 31 39" fill="none" xmlns="http://www.w3.org/2000/svg">
<path d="M27.125 39C28.1527 39 29.1383 38.5891 29.865 37.8577C30.5917 37.1263 31 36.1343 31 35.1V11.7L19.375 0H3.875C2.84729 0 1.86166 0.410892 1.13496 1.14228C0.408258 1.87368 0 2.86566 0 3.9V35.1C0 36.1343 0.408258 37.1263 1.13496 37.8577C1.86166 38.5891 2.84729 39 3.875 39H27.125ZM17.4375 3.9L27.125 13.65H17.4375V3.9ZM5.8125 11.7H11.625V15.6H5.8125V11.7ZM5.8125 19.5H25.1875V23.4H5.8125V19.5ZM5.8125 27.3H25.1875V31.2H5.8125V27.3Z" fill="#344B47"/>
</svg>
