<svg width="34" height="38" viewBox="0 0 34 38" fill="none" xmlns="http://www.w3.org/2000/svg">
<path d="M0 33.6571V14.1143C0 13.4267 0.150875 12.7752 0.452624 12.16C0.754374 11.5448 1.17017 11.0381 1.7 10.64L14.45 0.868571C15.1937 0.289524 16.0437 0 17 0C17.9562 0 18.8062 0.289524 19.55 0.868571L32.3 10.64C32.8312 11.0381 33.2477 11.5448 33.5495 12.16C33.8512 12.7752 34.0014 13.4267 34 14.1143V33.6571C34 34.8514 33.5835 35.8742 32.7505 36.7254C31.9175 37.5766 30.9173 38.0014 29.75 38H23.375C22.7729 38 22.2686 37.7915 21.862 37.3746C21.4554 36.9577 21.2514 36.4424 21.25 35.8286V24.9714C21.25 24.3562 21.046 23.8408 20.638 23.4254C20.23 23.0099 19.7257 22.8014 19.125 22.8H14.875C14.2729 22.8 13.7686 23.0085 13.362 23.4254C12.9554 23.8423 12.7514 24.3576 12.75 24.9714V35.8286C12.75 36.4438 12.546 36.9599 12.138 37.3768C11.73 37.7937 11.2257 38.0014 10.625 38H4.25C3.08125 38 2.08108 37.5751 1.2495 36.7254C0.417916 35.8756 0.00141667 34.8529 0 33.6571Z" fill="white"/>
</svg>
