<svg width="125" height="107" viewBox="0 0 125 107" fill="none" xmlns="http://www.w3.org/2000/svg">
<path fill-rule="evenodd" clip-rule="evenodd" d="M109.911 59.2581C103.909 51.0051 111.109 39.3353 109.557 22.7356C108.005 6.13598 82.3516 0.971501 72.4441 10.4747C62.5367 19.9779 47.0135 22.953 31.4317 22.7806C15.85 22.6083 8.72046 30.2878 6.75816 36.9008C4.79595 43.5138 5.2202 49.3553 8.31727 58.005C11.4143 66.6547 16.8303 75.0638 23.973 82.3583C31.1157 89.6528 44.3524 96.4177 51.4039 95.5464C58.4554 94.6752 58.0195 90.5081 68.5414 86.8399C79.0635 83.1716 96.1017 89.0372 104.722 82.3649C113.343 75.6926 115.913 67.5113 109.911 59.2581Z" fill="#EAF4F3"/>
<path d="M37.3267 83.0574C31.9505 83.0574 27.3708 81.1658 23.5876 77.3826C19.8044 73.5994 17.9128 69.0197 17.9128 63.6435V61.9262C13.6318 61.2292 10.0726 59.2251 7.23514 55.9138C4.39773 52.6025 2.97902 48.7078 2.97902 44.2297V29.2959C2.97902 28.4497 3.26575 27.7408 3.8392 27.1693C4.41266 26.5979 5.12152 26.3111 5.96577 26.3091H11.9393C11.9393 25.4629 12.226 24.754 12.7995 24.1826C13.3729 23.6111 14.0818 23.3244 14.926 23.3224C15.7703 23.3204 16.4801 23.6071 17.0556 24.1826C17.631 24.758 17.9168 25.4669 17.9128 26.3091V32.2826C17.9128 33.1289 17.626 33.8387 17.0526 34.4122C16.4791 34.9857 15.7703 35.2714 14.926 35.2694C14.0818 35.2674 13.3729 34.9807 12.7995 34.4092C12.226 33.8378 11.9393 33.1289 11.9393 32.2826H8.95252V44.2297C8.95252 47.5151 10.1223 50.3276 12.462 52.6672C14.8016 55.0068 17.6141 56.1767 20.8995 56.1767C24.185 56.1767 26.9975 55.0068 29.3371 52.6672C31.6767 50.3276 32.8465 47.5151 32.8465 44.2297V32.2826H29.8598C29.8598 33.1289 29.5731 33.8387 28.9996 34.4122C28.4261 34.9857 27.7173 35.2714 26.873 35.2694C26.0288 35.2674 25.3199 34.9807 24.7465 34.4092C24.173 33.8378 23.8863 33.1289 23.8863 32.2826V26.3091C23.8863 25.4629 24.173 24.754 24.7465 24.1826C25.3199 23.6111 26.0288 23.3244 26.873 23.3224C27.7173 23.3204 28.4271 23.6071 29.0026 24.1826C29.578 24.758 29.8638 25.4669 29.8598 26.3091H35.8333C36.6795 26.3091 37.3894 26.5959 37.9628 27.1693C38.5363 27.7428 38.822 28.4516 38.82 29.2959V44.2297C38.82 48.7098 37.4013 52.6055 34.5639 55.9168C31.7265 59.2281 28.1673 61.2312 23.8863 61.9262V63.6435C23.8863 67.377 25.1935 70.5509 27.8079 73.1653C30.4223 75.7797 33.5952 77.0859 37.3267 77.0839C41.0581 77.0819 44.232 75.7757 46.8484 73.1653C49.4648 70.5549 50.771 67.381 50.767 63.6435V58.6407C49.0248 57.9936 47.5941 56.9104 46.4751 55.3911C45.356 53.8719 44.7955 52.1426 44.7935 50.2032C44.7935 47.7142 45.6647 45.5986 47.4069 43.8563C49.1492 42.114 51.2648 41.2429 53.7538 41.2429C56.2427 41.2429 58.3584 42.114 60.1006 43.8563C61.8429 45.5986 62.714 47.7142 62.714 50.2032C62.714 52.1445 62.1545 53.8749 61.0355 55.3941C59.9164 56.9134 58.4848 57.9956 56.7405 58.6407V63.6435C56.7405 69.0197 54.8489 73.5994 51.0657 77.3826C47.2825 81.1658 42.7028 83.0574 37.3267 83.0574Z" fill="#C73434"/>
<path d="M75.8829 33.7564C60.0863 14.3769 43.411 28.1492 43.1913 42.999C43.1913 65.0933 69.6323 83.2227 75.8829 83.2227C82.1335 83.2227 108.574 65.088 108.574 42.9885C108.355 28.1439 91.6794 14.3769 75.8829 33.7564Z" fill="#C73434"/>
<path d="M88.9596 51.1066H81.1136L73.2676 61.5679L62.8063 43.2606L54.9603 53.7219H42.208" stroke="#521919" stroke-width="7" stroke-linecap="round" stroke-linejoin="round"/>
</svg>
