<svg width="14" height="14" viewBox="0 0 14 14" fill="none" xmlns="http://www.w3.org/2000/svg">
<path fill-rule="evenodd" clip-rule="evenodd" d="M11.75 0C12.242 0 12.7139 0.195464 13.0619 0.543393C13.4098 0.891323 13.6053 1.36322 13.6053 1.85526V11.75C13.6053 12.242 13.4098 12.7139 13.0619 13.0619C12.7139 13.4098 12.242 13.6053 11.75 13.6053C11.258 13.6053 10.7861 13.4098 10.4381 13.0619C10.0902 12.7139 9.89474 12.242 9.89474 11.75V1.85526C9.89474 1.36322 10.0902 0.891323 10.4381 0.543393C10.7861 0.195464 11.258 0 11.75 0ZM6.80263 3.71053C7.29468 3.71053 7.76657 3.90599 8.1145 4.25392C8.46243 4.60185 8.6579 5.07374 8.6579 5.56579V11.75C8.6579 12.242 8.46243 12.7139 8.1145 13.0619C7.76657 13.4098 7.29468 13.6053 6.80263 13.6053C6.31059 13.6053 5.83869 13.4098 5.49076 13.0619C5.14283 12.7139 4.94737 12.242 4.94737 11.75V5.56579C4.94737 5.07374 5.14283 4.60185 5.49076 4.25392C5.83869 3.90599 6.31059 3.71053 6.80263 3.71053ZM1.85526 7.42105C2.34731 7.42105 2.8192 7.61652 3.16713 7.96445C3.51506 8.31238 3.71053 8.78427 3.71053 9.27631V11.75C3.71053 12.242 3.51506 12.7139 3.16713 13.0619C2.8192 13.4098 2.34731 13.6053 1.85526 13.6053C1.36322 13.6053 0.891323 13.4098 0.543394 13.0619C0.195465 12.7139 0 12.242 0 11.75V9.27631C0 8.78427 0.195465 8.31238 0.543394 7.96445C0.891323 7.61652 1.36322 7.42105 1.85526 7.42105Z" fill="#668355"/>
</svg>
