<svg width="61" height="55" viewBox="0 0 61 55" fill="none" xmlns="http://www.w3.org/2000/svg">
<path d="M13.2004 9.87632C27.6708 4.42164 43.8223 11.7299 49.277 26.2004C54.7317 40.6708 47.4234 56.8224 32.953 62.277C18.4825 67.7317 2.33098 60.4234 -3.1237 45.953C-8.57838 31.4825 -1.2701 15.331 13.2004 9.87632ZM15.1756 15.1164C9.6166 17.2119 5.1177 21.4299 2.66862 26.8424C0.219536 32.2549 0.020887 38.4187 2.11637 43.9777C4.21186 49.5367 8.42983 54.0356 13.8424 56.4847C19.2549 58.9338 25.4187 59.1324 30.9777 57.037C36.5367 54.9415 41.0356 50.7235 43.4847 45.311C45.9338 39.8984 46.1324 33.7346 44.0369 28.1756C41.9415 22.6166 37.7235 18.1177 32.3109 15.6686C26.8984 13.2196 20.7346 13.0209 15.1756 15.1164ZM17.1509 20.3565C17.7926 20.1146 18.5008 20.1168 19.1411 20.3624C19.7814 20.6081 20.3093 21.0802 20.6246 21.6892L20.7585 21.9889L25.2878 34.0044L35.0538 38.4233C35.7014 38.7176 36.2127 39.2475 36.4838 39.9052C36.7549 40.5629 36.7656 41.2991 36.5135 41.9644C36.2615 42.6296 35.7657 43.174 35.1268 43.4869C34.4879 43.7998 33.7539 43.8578 33.0738 43.6491L32.7455 43.5245L21.9225 38.6273C21.3617 38.3732 20.9002 37.9414 20.6096 37.3986L20.4566 37.0643L15.5185 23.9641C15.2565 23.2693 15.2814 22.4988 15.5875 21.8222C15.8936 21.1456 16.456 20.6184 17.1509 20.3565Z" fill="#3C887E" fill-opacity="0.5"/>
</svg>
